<svg xmlns="http://www.w3.org/2000/svg" xml:space="preserve" width="962" height="746" style="shape-rendering:geometricPrecision;text-rendering:geometricPrecision;image-rendering:optimizeQuality;fill-rule:evenodd;clip-rule:evenodd" viewBox="0 0 422.46 327.62"><defs><style>.fil0,.fil1,.fil3{fill:#2a323d;fill-rule:nonzero}.fil1,.fil3{fill:#920710}.fil3{fill:#b21014}</style></defs><g id="OBJECTS"><path class="fil0" d="m16.63 296.48-1.15-3.62H6.91l-1.15 3.62H0l7.84-23.04h6.71l7.84 23.04h-5.76zm-8.14-8.56h5.4l-2.7-8.46-2.7 8.46z"/><path id="_1" class="fil0" d="M37.21 273.44h5.26v23.04h-3.95l-8.89-12.51v12.51h-5.27v-23.04h3.96l8.89 12.51z"/><path id="_2" class="fil0" d="M57.42 296.94c-3.45 0-6.3-1.14-8.58-3.44-2.27-2.29-3.4-5.14-3.4-8.54 0-3.4 1.13-6.25 3.4-8.54 2.28-2.3 5.13-3.44 8.58-3.44 2.06 0 3.97.47 5.73 1.43 1.76.95 3.14 2.25 4.15 3.9l-4.55 2.63c-.5-.9-1.22-1.59-2.17-2.09-.94-.49-2-.74-3.16-.74-2.04 0-3.67.63-4.89 1.88-1.22 1.25-1.83 2.91-1.83 4.97 0 2.06.61 3.72 1.83 4.97 1.22 1.25 2.85 1.88 4.89 1.88 1.16 0 2.22-.25 3.18-.76.95-.5 1.67-1.2 2.15-2.07l4.55 2.63c-.99 1.65-2.36 2.95-4.12 3.9-1.75.96-3.67 1.43-5.76 1.43z"/><path id="_3" class="fil0" d="M82.28 273.44h5.27v23.04h-5.27v-9.15h-7.24v9.15h-5.27v-23.04h5.27v8.82h7.24z"/><path id="_4" class="fil0" d="M110.99 293.49c-2.33 2.3-5.16 3.45-8.49 3.45-3.34 0-6.17-1.15-8.5-3.45-2.33-2.31-3.49-5.15-3.49-8.53 0-3.38 1.16-6.22 3.49-8.53 2.33-2.3 5.16-3.45 8.5-3.45 3.33 0 6.16 1.15 8.49 3.45 2.33 2.31 3.49 5.15 3.49 8.53 0 3.38-1.16 6.22-3.49 8.53zM97.7 289.9c1.29 1.27 2.89 1.91 4.8 1.91 1.91 0 3.5-.64 4.79-1.91 1.28-1.27 1.92-2.92 1.92-4.94 0-2.02-.64-3.67-1.92-4.94-1.29-1.27-2.88-1.91-4.79-1.91-1.91 0-3.51.64-4.8 1.91-1.28 1.27-1.92 2.92-1.92 4.94 0 2.02.64 3.67 1.92 4.94z"/><path id="_5" class="fil0" d="m129.56 296.48-4.35-7.57h-2.5v7.57h-5.27v-23.04h9.22c2.2 0 4.06.76 5.6 2.3 1.54 1.54 2.3 3.4 2.3 5.6 0 1.4-.39 2.7-1.16 3.9a8.006 8.006 0 0 1-3.08 2.78l4.9 8.46h-5.66zm-6.85-18.1v5.92h3.95c.73 0 1.35-.28 1.86-.85.52-.58.78-1.28.78-2.11 0-.84-.26-1.54-.78-2.11-.51-.57-1.13-.85-1.86-.85h-3.95z"/><path id="_6" class="fil0" d="M153.99 296.94c-2.35 0-4.31-.51-5.88-1.53-1.57-1.02-2.68-2.41-3.34-4.16l4.54-2.64c.93 2.13 2.54 3.2 4.84 3.2 2.09 0 3.13-.63 3.13-1.88 0-.68-.33-1.21-1-1.6-.67-.38-1.93-.82-3.77-1.33-.97-.26-1.81-.56-2.54-.89-.72-.33-1.43-.76-2.12-1.3a5.223 5.223 0 0 1-1.58-2.02c-.36-.82-.54-1.75-.54-2.8 0-2.13.76-3.83 2.28-5.11 1.53-1.27 3.35-1.9 5.45-1.9 1.89 0 3.56.44 5.01 1.33 1.45.89 2.59 2.18 3.42 3.87l-4.44 2.6c-.42-.88-.94-1.54-1.55-1.99-.61-.45-1.43-.68-2.44-.68-.79 0-1.4.17-1.82.51-.43.34-.65.75-.65 1.24 0 .57.27 1.06.81 1.48.54.42 1.65.88 3.34 1.38.92.29 1.64.52 2.14.69.51.18 1.15.47 1.93.88.78.4 1.37.83 1.78 1.28.4.45.76 1.04 1.08 1.78.32.73.48 1.57.48 2.52 0 2.19-.79 3.92-2.37 5.18-1.58 1.26-3.64 1.89-6.19 1.89z"/><path id="_7" class="fil0" d="m179.51 296.48-1.16-3.62h-8.56l-1.15 3.62h-5.76l7.84-23.04h6.71l7.84 23.04h-5.76zm-8.14-8.56h5.4l-2.7-8.46-2.7 8.46z"/><path id="_8" class="fil0" d="M201.24 278.51h-8.73v4.44h8.56v5.07h-8.56v8.46h-5.27v-23.04h14z"/><path id="_9" class="fil0" d="M209.63 291.41h9.22v5.07h-14.48v-23.04h14.32v5.07h-9.06v3.82h8.23v5h-8.23z"/><path id="_10" class="fil0" d="M237.29 273.44v5.07h-5.93v17.97h-5.26v-17.97h-5.93v-5.07z"/><path id="_11" class="fil0" d="m258.36 273.44-7.74 14.19v8.85h-5.26v-8.85l-7.74-14.19h5.99l4.38 8.89 4.38-8.89z"/><path id="_12" class="fil0" d="m283.22 296.48-1.15-3.62h-8.56l-1.16 3.62h-5.76l7.84-23.04h6.72l7.83 23.04h-5.76zm-8.13-8.56h5.4l-2.7-8.46-2.7 8.46z"/><path id="_13" class="fil0" d="M301.13 296.94c-3.45 0-6.3-1.14-8.58-3.44-2.27-2.29-3.4-5.14-3.4-8.54 0-3.4 1.13-6.25 3.4-8.54 2.28-2.3 5.13-3.44 8.58-3.44 2.06 0 3.97.47 5.73 1.43 1.76.95 3.14 2.25 4.15 3.9l-4.55 2.63c-.5-.9-1.22-1.59-2.17-2.09-.94-.49-2-.74-3.16-.74-2.04 0-3.67.63-4.89 1.88-1.22 1.25-1.83 2.91-1.83 4.97 0 2.06.61 3.72 1.83 4.97 1.22 1.25 2.85 1.88 4.89 1.88 1.16 0 2.22-.25 3.18-.76.95-.5 1.67-1.2 2.15-2.07l4.55 2.63c-.99 1.65-2.36 2.95-4.12 3.9-1.75.96-3.67 1.43-5.76 1.43z"/><path id="_14" class="fil0" d="m328.13 296.48-1.15-3.62h-8.56l-1.16 3.62h-5.76l7.84-23.04h6.72l7.83 23.04h-5.76zm-8.13-8.56h5.4l-2.7-8.46-2.7 8.46z"/><path id="_15" class="fil0" d="M345.09 273.44c3.18 0 5.84 1.1 7.98 3.3 2.14 2.21 3.21 4.95 3.21 8.22 0 3.27-1.07 6.01-3.21 8.21-2.14 2.21-4.8 3.31-7.98 3.31h-9.22v-23.04h9.22zm0 17.97c1.82 0 3.29-.58 4.42-1.76 1.13-1.17 1.7-2.74 1.7-4.69 0-1.95-.57-3.52-1.7-4.69-1.13-1.18-2.6-1.76-4.42-1.76h-3.95v12.9h3.95z"/><path id="_16" class="fil0" d="M364.51 291.41h9.22v5.07h-14.49v-23.04h14.33v5.07h-9.06v3.82h8.23v5h-8.23z"/><path id="_17" class="fil0" d="M399.74 273.44v23.04h-5.27v-13.4l-5.96 9.78h-.59l-5.96-9.78v13.4h-5.27v-23.04h5.27l6.26 10.24 6.25-10.24z"/><path id="_18" class="fil0" d="m422.46 273.44-7.74 14.19v8.85h-5.27v-8.85l-7.73-14.19h5.99l4.38 8.89 4.38-8.89z"/><path class="fil1" d="M42.96 322.97h1.57v-13.68h5.93v-1.44H37.03v1.44h5.93z"/><path id="_1_0" class="fil1" d="M50.05 322.97h1.57v-5.62c0-3.13 2.05-4.17 3.75-4.17.49 0 .95.05 1.44.13v-1.61c-.23-.04-.49-.08-.93-.08-2.61 0-3.64 1.54-4.22 2.86h-.04v-2.52h-1.57v11.01z"/><path id="_2_1" class="fil1" d="M66.65 318.71c0 2.27-2.47 3.41-4.59 3.41-1.7 0-3.18-.51-3.18-2.22 0-1.32 1.06-1.87 2.88-2.04 3.14-.29 4.19-.38 4.89-.82v1.67zm-7.41-3.37c.11-1.75 1.29-2.41 3.77-2.41 2.58 0 3.64.57 3.64 2.16 0 1.08-.42 1.27-3.85 1.46-2.41.13-5.48.47-5.48 3.45 0 2.48 2.39 3.3 4.27 3.3 3.6 0 4.66-1.48 5.15-2.2h.04c.02.87.11 1.95 1.69 1.95.51 0 1-.11 1.32-.17v-1.06c-.28.02-.55.04-.83.04-.61 0-.87-.31-.87-1.22v-5.76c0-2.12-1.35-3.26-5.04-3.26-3.76 0-5.01 1.42-5.25 3.72h1.44z"/><path id="_3_2" class="fil1" d="M70.78 322.97h1.57v-11.01h-1.57v11.01zm0-12.92h1.57v-2.33h-1.57v2.33z"/><path id="_4_3" class="fil1" d="M84.08 322.97h1.56v-6.82c0-2.63-1.1-4.53-4.76-4.53-2.44 0-4.09 1.33-4.55 2.5h-.04v-2.16h-1.57v11.01h1.57v-5.98c0-2.49 1.39-4.06 4.46-4.06 1.99 0 3.33.76 3.33 2.94v7.1z"/><path id="_5_4" class="fil1" d="M88.01 322.97h1.57v-11.01h-1.57v11.01zm0-12.92h1.57v-2.33h-1.57v2.33z"/><path id="_6_5" class="fil1" d="M101.31 322.97h1.57v-6.82c0-2.63-1.1-4.53-4.77-4.53-2.43 0-4.08 1.33-4.55 2.5h-.04v-2.16h-1.57v11.01h1.57v-5.98c0-2.49 1.4-4.06 4.47-4.06 1.99 0 3.32.76 3.32 2.94v7.1z"/><path id="_7_6" class="fil1" d="M115.52 317.23c0 2.79-1.99 4.42-4.58 4.42-2.64 0-4.66-1.2-4.66-4.42 0-2.71 1.78-4.3 4.54-4.3 3.11 0 4.7 1.99 4.7 4.3zm-.05-3.14h-.04c-.74-1.67-2.56-2.47-4.7-2.47-4.15 0-6.01 2.69-6.01 5.61 0 4.3 3.05 5.74 5.84 5.74 2.84 0 4.28-1.38 4.87-2.5h.04v1.97c0 2.64-1.67 4-4.55 4-3.7 0-4.02-1.21-4.25-2.4h-1.44c.12 1.19.61 3.58 5.63 3.58 2.9 0 6.18-1.01 6.18-5.08v-10.58h-1.57v2.13z"/><path id="_8_7" class="fil1" d="M120.24 322.97h.76c0 1.05-.11 1.77-.95 2.15v.81c1.16-.32 2.01-1.17 2.01-2.92v-2.37h-1.82v2.33z"/><path id="_9_8" class="fil1" d="M144.8 317.21c-.53 2.88-2.31 4.7-5.91 4.7-4.6 0-6.35-3.14-6.35-6.5 0-4.41 2.6-6.5 6.35-6.5 2.73 0 5.31 1.16 5.78 4.04h1.56c-.46-3.98-4.04-5.48-7.34-5.48-5.91 0-8.05 4.49-8.05 7.94 0 4.85 3.14 7.94 8.05 7.94 4.34 0 7.13-2.76 7.47-6.14h-1.56z"/><path id="_10_9" class="fil1" d="M149.62 317.46c0-2.65 1.72-4.53 4.68-4.53s4.68 1.88 4.68 4.53c0 2.65-1.72 4.53-4.68 4.53s-4.68-1.88-4.68-4.53zm-1.56 0c0 3.07 2.01 5.84 6.24 5.84s6.25-2.77 6.25-5.84-2.02-5.84-6.25-5.84-6.24 2.77-6.24 5.84z"/><path id="_11_10" class="fil1" d="M171.94 322.97h1.56v-6.82c0-2.63-1.1-4.53-4.76-4.53-2.44 0-4.09 1.33-4.55 2.5h-.04v-2.16h-1.57v11.01h1.57v-5.98c0-2.49 1.39-4.06 4.46-4.06 1.99 0 3.33.76 3.33 2.94v7.1z"/><path id="_12_11" class="fil1" d="M185.55 315.22c-.19-2.31-1.65-3.6-5.23-3.6-3.2 0-4.74 1.35-4.74 3.26 0 1.95 1.2 2.75 4.63 3.09 3.43.34 4.22.82 4.22 1.93 0 1.65-1.49 2.09-3.67 2.09-2.81 0-3.85-.63-4.12-2.48h-1.44c0 2.65 2.07 3.79 5.56 3.79 3.46 0 5.23-1.31 5.23-3.49 0-2.14-1.39-2.73-4.76-3.17-3.34-.45-4.09-.68-4.09-1.83 0-1.52 1.53-1.88 3.18-1.88 2.29 0 3.39.51 3.79 2.29h1.44z"/><path id="_13_12" class="fil1" d="M197.04 322.97h1.57v-11.01h-1.57v5.97c0 2.49-1.39 4.06-4.46 4.06-1.99 0-3.33-.76-3.33-2.94v-7.09h-1.56v6.81c0 2.63 1.1 4.53 4.76 4.53 2.44 0 4.09-1.33 4.55-2.49h.04v2.16z"/><path id="_14_13" class="fil1" d="M200.98 322.97h1.57v-15.25h-1.57z"/><path id="_15_14" class="fil1" d="M205.98 311.96h-2.39v1.18h2.39v7.26c0 1.78.53 2.73 2.96 2.73.51 0 1.12-.04 1.72-.12v-1.32c-.3.07-.79.13-1.55.13-1.27 0-1.56-.44-1.56-1.4v-7.28h3.11v-1.18h-3.11v-3.48h-1.57v3.48z"/><path id="_16_15" class="fil1" d="M212.33 322.97h1.57v-11.01h-1.57v11.01zm0-12.92h1.57v-2.33h-1.57v2.33z"/><path id="_17_16" class="fil1" d="M225.63 322.97h1.56v-6.82c0-2.63-1.1-4.53-4.76-4.53-2.44 0-4.09 1.33-4.55 2.5h-.05v-2.16h-1.56v11.01h1.56v-5.98c0-2.49 1.4-4.06 4.47-4.06 1.99 0 3.33.76 3.33 2.94v7.1z"/><path id="_18_17" class="fil1" d="M239.83 317.23c0 2.79-1.99 4.42-4.57 4.42-2.65 0-4.66-1.2-4.66-4.42 0-2.71 1.78-4.3 4.53-4.3 3.11 0 4.7 1.99 4.7 4.3zm-.04-3.14h-.04c-.74-1.67-2.57-2.47-4.7-2.47-4.15 0-6.02 2.69-6.02 5.61 0 4.3 3.05 5.74 5.85 5.74 2.83 0 4.27-1.38 4.87-2.5h.04v1.97c0 2.64-1.67 4-4.55 4-3.71 0-4.03-1.21-4.26-2.4h-1.44c.13 1.19.62 3.58 5.63 3.58 2.9 0 6.19-1.01 6.19-5.08v-10.58h-1.57v2.13z"/><path id="_19" class="fil1" d="M244.55 322.97h.76c0 1.05-.1 1.77-.95 2.15v.81c1.17-.32 2.01-1.17 2.01-2.92v-2.37h-1.82v2.33z"/><path id="_20" class="fil1" d="M255.69 322.97h7.58c4.23 0 6.45-3.31 6.45-7.56 0-4.75-2.28-7.56-6.69-7.56h-7.34v15.12zm1.56-13.68h5.72c3.49 0 5.06 2.12 5.06 6.12 0 4.63-2.35 6.12-5.06 6.12h-5.72v-12.24z"/><path id="_21" class="fil1" d="M273.15 316.66c.36-2.69 2.52-3.73 4.53-3.73 2.1 0 4.09 1.02 4.54 3.73h-9.07zm8.79 2.79c-.55 1.67-1.74 2.54-4.36 2.54-2.8 0-4.43-1.86-4.43-4.15h10.63c0-4.99-3.36-6.22-6.2-6.22-4.11 0-5.99 2.77-5.99 5.84 0 2.69 1.48 5.84 5.99 5.84 3.64 0 5.29-1.9 5.93-3.85h-1.57z"/><path id="_22" class="fil1" d="m290.37 321.17-4.32-9.21h-1.7l5.17 11.01h1.69l5.17-11.01h-1.69z"/><path id="_23" class="fil1" d="M298.64 316.66c.36-2.69 2.52-3.73 4.53-3.73 2.1 0 4.09 1.02 4.54 3.73h-9.07zm8.79 2.79c-.55 1.67-1.74 2.54-4.36 2.54-2.8 0-4.43-1.86-4.43-4.15h10.63c0-4.99-3.36-6.22-6.2-6.22-4.11 0-5.99 2.77-5.99 5.84 0 2.69 1.48 5.84 5.99 5.84 3.64 0 5.29-1.9 5.93-3.85h-1.57z"/><path id="_24" class="fil1" d="M311.14 322.97h1.56v-15.25h-1.56z"/><path id="_25" class="fil1" d="M316.26 317.46c0-2.65 1.71-4.53 4.68-4.53 2.96 0 4.68 1.88 4.68 4.53 0 2.65-1.72 4.53-4.68 4.53-2.97 0-4.68-1.88-4.68-4.53zm-1.57 0c0 3.07 2.01 5.84 6.25 5.84 4.23 0 6.24-2.77 6.24-5.84s-2.01-5.84-6.24-5.84c-4.24 0-6.25 2.77-6.25 5.84z"/><path id="_26" class="fil1" d="M329.21 327.24h1.57v-6.48h.04c.72 1.4 2.42 2.54 4.49 2.54 4.11 0 5.99-2.77 5.99-5.84 0-2.69-1.48-5.84-5.99-5.84-3.05 0-4.06 1.61-4.49 2.54h-.04v-2.2h-1.57v15.28zm1.49-9.78c0-2.88 2.01-4.53 4.61-4.53 3.2 0 4.43 2.33 4.43 4.53 0 2.8-1.95 4.53-4.43 4.53-3.19 0-4.61-2.26-4.61-4.53z"/><path id="_27" class="fil1" d="M360.53 322.97h1.56v-7.52c0-2.27-1.44-3.83-4.53-3.83-2.2 0-3.79 1.31-4.32 2.41-.31-1.1-1.46-2.41-3.93-2.41-2.52 0-3.71 1.2-4.37 2.37h-.04v-2.03h-1.56v11.01h1.56v-6.21c0-2.54 1.65-3.83 3.9-3.83 2.14 0 3.13 1.19 3.13 2.58v7.46h1.57v-6.5c0-2.14 1.33-3.54 3.75-3.54 2.26 0 3.28 1.04 3.28 3.05v6.99z"/><path id="_28" class="fil1" d="M365.69 316.66c.36-2.69 2.52-3.73 4.53-3.73 2.1 0 4.09 1.02 4.53 3.73h-9.06zm8.79 2.79c-.55 1.67-1.74 2.54-4.36 2.54-2.8 0-4.43-1.86-4.43-4.15h10.63c0-4.99-3.37-6.22-6.2-6.22-4.11 0-5.99 2.77-5.99 5.84 0 2.69 1.48 5.84 5.99 5.84 3.64 0 5.29-1.9 5.93-3.85h-1.57z"/><path id="_29" class="fil1" d="M387.58 322.97h1.57v-6.82c0-2.63-1.1-4.53-4.76-4.53-2.44 0-4.09 1.33-4.56 2.5h-.04v-2.16h-1.56v11.01h1.56v-5.98c0-2.49 1.4-4.06 4.47-4.06 1.99 0 3.32.76 3.32 2.94v7.1z"/><path id="_30" class="fil1" d="M392.62 311.96h-2.39v1.18h2.39v7.26c0 1.78.53 2.73 2.97 2.73.5 0 1.12-.04 1.71-.12v-1.32c-.3.07-.78.13-1.54.13-1.27 0-1.57-.44-1.57-1.4v-7.28h3.11v-1.18h-3.11v-3.48h-1.57v3.48z"/><path d="m209.49 47.56 75.17 130.09c-148.64-51.02-221.5 75.61-221.5 75.61 153.34-140.65 292.67 0 292.67 0L209.49 0 100.83 188.06s60.19-66.92 153.48-31.55c0 0-32.13-29.88-89.54-29.88l44.72-79.07z" style="fill:#39090e;fill-rule:nonzero"/><path class="fil1" d="m209.49 47.56 75.17 130.09c-148.64-51.02-221.5 75.61-221.5 75.61 153.34-140.65 292.67 0 292.67 0L209.49 0 100.83 188.06s60.19-66.92 153.48-31.55c0 0-32.13-29.88-89.54-29.88l44.72-79.07z"/><path class="fil3" d="M254.31 156.51s-44.92-43.23-118.8-28.47l-34.68 60.02s71.47-57.16 153.48-31.55z"/><path class="fil3" d="M63.16 253.26s43.35-75.98 125.14-89.55c81.8-13.56 131.41 27.04 167.53 89.55 0 0-142.53-139.82-292.67 0z"/></g></svg>