<svg xmlns="http://www.w3.org/2000/svg" xml:space="preserve" width="974" height="249" style="shape-rendering:geometricPrecision;text-rendering:geometricPrecision;image-rendering:optimizeQuality;fill-rule:evenodd;clip-rule:evenodd" viewBox="0 0 528.09 135.23"><defs><style>.fil0,.fil1,.fil3{fill:#2a323d;fill-rule:nonzero}.fil1,.fil3{fill:#920710}.fil3{fill:#b21014}</style></defs><g id="OBJECTS"><g id="_1359135043088"><path class="fil0" d="m180.77 61.69-.98-3.1h-7.33l-.99 3.1h-4.93l6.71-19.72H179l6.7 19.72h-4.93zm-6.96-7.32h4.62l-2.31-7.25-2.31 7.25z"/><path id="_1" class="fil0" d="M198.38 41.97h4.51v19.72h-3.38l-7.61-10.71v10.71h-4.51V41.97h3.38l7.61 10.7z"/><path id="_2" class="fil0" d="M215.68 62.09c-2.95 0-5.39-.99-7.34-2.95-1.94-1.96-2.91-4.4-2.91-7.31 0-2.91.97-5.35 2.91-7.31 1.95-1.97 4.39-2.95 7.34-2.95 1.77 0 3.4.41 4.91 1.23 1.5.81 2.68 1.93 3.55 3.34l-3.89 2.25a4.404 4.404 0 0 0-1.86-1.79c-.81-.42-1.71-.63-2.71-.63-1.74 0-3.14.53-4.18 1.6-1.04 1.07-1.56 2.49-1.56 4.26 0 1.76.52 3.18 1.56 4.25 1.04 1.07 2.44 1.61 4.18 1.61 1 0 1.91-.22 2.72-.65.82-.43 1.44-1.02 1.85-1.77l3.89 2.25c-.85 1.41-2.02 2.52-3.53 3.34-1.5.82-3.14 1.23-4.93 1.23z"/><path id="_3" class="fil0" d="M236.96 41.97h4.51v19.72h-4.51v-7.83h-6.2v7.83h-4.51V41.97h4.51v7.55h6.2z"/><path id="_4" class="fil0" d="M261.53 59.13c-1.99 1.97-4.41 2.96-7.27 2.96-2.86 0-5.28-.99-7.27-2.96-1.99-1.98-2.99-4.41-2.99-7.3 0-2.89 1-5.33 2.99-7.3 1.99-1.97 4.41-2.96 7.27-2.96 2.86 0 5.28.99 7.27 2.96 1.99 1.97 2.99 4.41 2.99 7.3 0 2.89-1 5.32-2.99 7.3zm-11.37-3.07c1.1 1.09 2.47 1.63 4.1 1.63 1.63 0 3-.54 4.1-1.63 1.1-1.09 1.65-2.5 1.65-4.23 0-1.73-.55-3.14-1.65-4.23-1.1-1.09-2.47-1.63-4.1-1.63-1.63 0-3 .54-4.1 1.63-1.1 1.09-1.65 2.5-1.65 4.23 0 1.73.55 3.14 1.65 4.23z"/><path id="_5" class="fil0" d="m277.42 61.69-3.72-6.48h-2.14v6.48h-4.51V41.97h7.89c1.88 0 3.48.65 4.79 1.97 1.32 1.31 1.98 2.91 1.98 4.79 0 1.2-.34 2.31-1.01 3.34a6.779 6.779 0 0 1-2.63 2.38l4.2 7.24h-4.85zm-5.86-15.5v5.08h3.38c.62 0 1.15-.25 1.59-.74.45-.49.67-1.09.67-1.8s-.22-1.32-.67-1.8c-.44-.49-.97-.74-1.59-.74h-3.38z"/><path id="_6" class="fil0" d="M298.33 62.09c-2.01 0-3.69-.44-5.03-1.31-1.34-.88-2.3-2.07-2.86-3.57l3.89-2.25c.79 1.82 2.17 2.73 4.14 2.73 1.79 0 2.68-.54 2.68-1.61 0-.58-.29-1.03-.86-1.36-.57-.33-1.65-.71-3.23-1.14-.82-.23-1.55-.48-2.17-.76-.62-.29-1.22-.66-1.81-1.12a4.43 4.43 0 0 1-1.36-1.73c-.31-.7-.46-1.49-.46-2.4 0-1.82.65-3.27 1.96-4.36 1.3-1.09 2.86-1.64 4.66-1.64 1.62 0 3.04.38 4.28 1.14 1.24.76 2.22 1.87 2.93 3.31l-3.8 2.23c-.36-.75-.8-1.32-1.33-1.7-.52-.39-1.22-.58-2.08-.58-.68 0-1.2.14-1.56.43-.37.3-.55.65-.55 1.06 0 .49.23.91.69 1.27.46.36 1.41.75 2.86 1.18.79.25 1.4.44 1.83.59.43.15.98.4 1.65.75.66.35 1.17.72 1.52 1.1.35.39.66.89.93 1.52s.41 1.35.41 2.16c0 1.88-.68 3.36-2.03 4.44-1.35 1.08-3.12 1.62-5.3 1.62z"/><path id="_7" class="fil0" d="m320.17 61.69-.99-3.1h-7.32l-.99 3.1h-4.93l6.7-19.72h5.75l6.71 19.72h-4.93zm-6.96-7.32h4.62l-2.31-7.25-2.31 7.25z"/><path id="_8" class="fil0" d="M338.77 46.31h-7.47v3.8h7.33v4.34h-7.33v7.24h-4.51V41.97h11.98z"/><path id="_9" class="fil0" d="M345.95 57.35h7.89v4.34h-12.4V41.97h12.26v4.34h-7.75v3.26H353v4.29h-7.05z"/><path id="_10" class="fil0" d="M369.62 41.97v4.34h-5.07v15.38h-4.51V46.31h-5.07v-4.34z"/><path id="_11" class="fil0" d="m387.65 41.97-6.62 12.14v7.58h-4.51v-7.58l-6.62-12.14h5.13l3.75 7.6 3.75-7.6z"/><path id="_12" class="fil0" d="m408.93 61.69-.99-3.1h-7.32l-.99 3.1h-4.93l6.7-19.72h5.75l6.71 19.72h-4.93zm-6.96-7.32h4.62l-2.31-7.25-2.31 7.25z"/><path id="_13" class="fil0" d="M424.26 62.09c-2.95 0-5.4-.99-7.34-2.95-1.95-1.96-2.92-4.4-2.92-7.31 0-2.91.97-5.35 2.92-7.31 1.94-1.97 4.39-2.95 7.34-2.95 1.76 0 3.4.41 4.9 1.23 1.5.81 2.69 1.93 3.55 3.34l-3.89 2.25a4.404 4.404 0 0 0-1.86-1.79c-.81-.42-1.71-.63-2.7-.63-1.75 0-3.14.53-4.19 1.6-1.04 1.07-1.56 2.49-1.56 4.26 0 1.76.52 3.18 1.56 4.25 1.05 1.07 2.44 1.61 4.19 1.61.99 0 1.9-.22 2.72-.65.81-.43 1.43-1.02 1.84-1.77l3.89 2.25c-.84 1.41-2.02 2.52-3.52 3.34-1.5.82-3.15 1.23-4.93 1.23z"/><path id="_14" class="fil0" d="m447.36 61.69-.98-3.1h-7.33l-.99 3.1h-4.93l6.71-19.72h5.75l6.7 19.72h-4.93zm-6.96-7.32h4.62l-2.31-7.25-2.31 7.25z"/><path id="_15" class="fil0" d="M461.87 41.97c2.73 0 5.01.94 6.84 2.83 1.83 1.89 2.75 4.23 2.75 7.03s-.92 5.14-2.75 7.03c-1.83 1.89-4.11 2.83-6.84 2.83h-7.88V41.97h7.88zm0 15.38c1.56 0 2.83-.5 3.8-1.51.96-1 1.45-2.34 1.45-4.01s-.49-3.01-1.45-4.02c-.97-1-2.24-1.5-3.8-1.5h-3.38v11.04h3.38z"/><path id="_16" class="fil0" d="M478.5 57.35h7.89v4.34h-12.4V41.97h12.26v4.34h-7.75v3.26h7.04v4.29h-7.04z"/><path id="_17" class="fil0" d="M508.65 41.97v19.72h-4.51V50.22l-5.1 8.37h-.51l-5.1-8.37v11.47h-4.5V41.97h4.5l5.36 8.76 5.35-8.76z"/><path id="_18" class="fil0" d="m528.09 41.97-6.62 12.14v7.58h-4.51v-7.58l-6.62-12.14h5.13l3.75 7.6 3.75-7.6z"/><path class="fil1" d="M172.49 88.98h1.57V75.26h5.95v-1.45h-13.47v1.45h5.95z"/><path id="_1_0" class="fil1" d="M179.61 88.98h1.57v-5.63c0-3.14 2.06-4.18 3.76-4.18.49 0 .96.04 1.45.13v-1.62c-.24-.04-.49-.08-.94-.08-2.61 0-3.65 1.55-4.23 2.86h-.04v-2.52h-1.57v11.04z"/><path id="_2_1" class="fil1" d="M196.26 84.71c0 2.28-2.48 3.42-4.61 3.42-1.7 0-3.18-.51-3.18-2.23 0-1.31 1.06-1.87 2.89-2.04 3.14-.29 4.2-.38 4.9-.83v1.68zm-7.43-3.37c.1-1.77 1.29-2.43 3.78-2.43 2.59 0 3.65.58 3.65 2.17 0 1.08-.42 1.27-3.86 1.47-2.42.12-5.51.46-5.51 3.46 0 2.48 2.41 3.31 4.3 3.31 3.61 0 4.67-1.48 5.16-2.21h.04c.02.88.11 1.96 1.7 1.96.51 0 1-.11 1.32-.17v-1.06c-.28.02-.55.04-.83.04-.62 0-.87-.32-.87-1.23v-5.78c0-2.13-1.36-3.27-5.06-3.27-3.78 0-5.03 1.42-5.27 3.74h1.45z"/><path id="_3_2" class="fil1" d="M200.41 88.98h1.57V77.94h-1.57v11.04zm0-12.96h1.57v-2.33h-1.57v2.33z"/><path id="_4_3" class="fil1" d="M213.75 88.98h1.57v-6.84c0-2.63-1.1-4.54-4.78-4.54-2.44 0-4.1 1.33-4.57 2.5h-.04v-2.16h-1.57v11.04h1.57v-5.99c0-2.5 1.4-4.08 4.48-4.08 2 0 3.34.77 3.34 2.96v7.11z"/><path id="_5_4" class="fil1" d="M217.7 88.98h1.57V77.94h-1.57v11.04zm0-12.96h1.57v-2.33h-1.57v2.33z"/><path id="_6_5" class="fil1" d="M231.04 88.98h1.58v-6.84c0-2.63-1.11-4.54-4.78-4.54-2.45 0-4.1 1.33-4.57 2.5h-.04v-2.16h-1.58v11.04h1.58v-5.99c0-2.5 1.4-4.08 4.48-4.08 2 0 3.33.77 3.33 2.96v7.11z"/><path id="_7_6" class="fil1" d="M245.3 83.23c0 2.8-2 4.44-4.59 4.44-2.65 0-4.67-1.21-4.67-4.44 0-2.72 1.78-4.32 4.54-4.32 3.13 0 4.72 2 4.72 4.32zm-.04-3.15h-.04c-.75-1.68-2.57-2.48-4.72-2.48-4.17 0-6.03 2.69-6.03 5.63 0 4.31 3.05 5.75 5.86 5.75 2.85 0 4.29-1.38 4.89-2.5h.04v1.97c0 2.66-1.68 4.02-4.57 4.02-3.72 0-4.04-1.21-4.27-2.4h-1.44c.12 1.19.61 3.59 5.65 3.59 2.91 0 6.2-1.02 6.2-5.1V77.94h-1.57v2.14z"/><path id="_8_7" class="fil1" d="M250.04 88.98h.76c0 1.07-.1 1.79-.95 2.17v.81c1.17-.32 2.02-1.17 2.02-2.93v-2.38h-1.83v2.33z"/><path id="_9_8" class="fil1" d="M274.68 83.2c-.53 2.89-2.31 4.72-5.92 4.72-4.61 0-6.38-3.14-6.38-6.52 0-4.42 2.62-6.52 6.38-6.52 2.74 0 5.33 1.17 5.8 4.05h1.57c-.47-3.99-4.06-5.5-7.37-5.5-5.93 0-8.08 4.51-8.08 7.97 0 4.86 3.15 7.97 8.08 7.97 4.35 0 7.16-2.77 7.5-6.17h-1.58z"/><path id="_10_9" class="fil1" d="M279.53 83.46c0-2.66 1.72-4.55 4.69-4.55 2.98 0 4.7 1.89 4.7 4.55s-1.72 4.55-4.7 4.55c-2.97 0-4.69-1.89-4.69-4.55zm-1.57 0c0 3.08 2.01 5.86 6.26 5.86s6.27-2.78 6.27-5.86c0-3.08-2.02-5.86-6.27-5.86s-6.26 2.78-6.26 5.86z"/><path id="_11_10" class="fil1" d="M301.92 88.98h1.57v-6.84c0-2.63-1.1-4.54-4.78-4.54-2.44 0-4.1 1.33-4.56 2.5h-.05v-2.16h-1.57v11.04h1.57v-5.99c0-2.5 1.41-4.08 4.49-4.08 1.99 0 3.33.77 3.33 2.96v7.11z"/><path id="_12_11" class="fil1" d="M315.58 81.21c-.19-2.32-1.65-3.61-5.25-3.61-3.2 0-4.75 1.36-4.75 3.27 0 1.95 1.21 2.76 4.65 3.1 3.44.34 4.23.83 4.23 1.93 0 1.66-1.49 2.11-3.68 2.11-2.82 0-3.87-.64-4.14-2.49h-1.45c0 2.66 2.09 3.8 5.59 3.8 3.46 0 5.25-1.31 5.25-3.5 0-2.15-1.4-2.74-4.78-3.19-3.36-.44-4.1-.68-4.1-1.83 0-1.53 1.53-1.89 3.18-1.89 2.3 0 3.4.51 3.81 2.3h1.44z"/><path id="_13_12" class="fil1" d="M327.12 88.98h1.57V77.94h-1.57v5.99c0 2.5-1.4 4.08-4.48 4.08-2 0-3.34-.77-3.34-2.96v-7.11h-1.57v6.84c0 2.63 1.1 4.54 4.78 4.54 2.44 0 4.1-1.33 4.57-2.5h.04v2.16z"/><path id="_14_13" class="fil1" d="M331.07 88.98h1.57V73.69h-1.57z"/><path id="_15_14" class="fil1" d="M336.09 77.94h-2.41v1.19h2.41v7.28c0 1.79.53 2.74 2.97 2.74.51 0 1.13-.04 1.72-.12v-1.32c-.3.06-.79.13-1.55.13-1.28 0-1.57-.45-1.57-1.41v-7.3h3.12v-1.19h-3.12v-3.49h-1.57v3.49z"/><path id="_16_15" class="fil1" d="M342.46 88.98h1.57V77.94h-1.57v11.04zm0-12.96h1.57v-2.33h-1.57v2.33z"/><path id="_17_16" class="fil1" d="M355.8 88.98h1.57v-6.84c0-2.63-1.1-4.54-4.78-4.54-2.44 0-4.1 1.33-4.56 2.5h-.05v-2.16h-1.57v11.04h1.57v-5.99c0-2.5 1.4-4.08 4.49-4.08 1.99 0 3.33.77 3.33 2.96v7.11z"/><path id="_18_17" class="fil1" d="M370.06 83.23c0 2.8-2 4.44-4.59 4.44-2.66 0-4.68-1.21-4.68-4.44 0-2.72 1.79-4.32 4.55-4.32 3.12 0 4.72 2 4.72 4.32zm-.04-3.15h-.05c-.74-1.68-2.57-2.48-4.71-2.48-4.17 0-6.04 2.69-6.04 5.63 0 4.31 3.06 5.75 5.87 5.75 2.84 0 4.29-1.38 4.88-2.5h.05v1.97c0 2.66-1.68 4.02-4.57 4.02-3.72 0-4.04-1.21-4.27-2.4h-1.45c.13 1.19.62 3.59 5.65 3.59 2.91 0 6.21-1.02 6.21-5.1V77.94h-1.57v2.14z"/><path id="_19" class="fil1" d="M374.8 88.98h.76c0 1.07-.11 1.79-.96 2.17v.81c1.17-.32 2.02-1.17 2.02-2.93v-2.38h-1.82v2.33z"/><path id="_20" class="fil1" d="M385.97 88.98h7.61c4.25 0 6.48-3.31 6.48-7.58 0-4.76-2.3-7.59-6.72-7.59h-7.37v15.17zm1.57-13.72h5.74c3.5 0 5.08 2.12 5.08 6.14 0 4.65-2.36 6.14-5.08 6.14h-5.74V75.26z"/><path id="_21" class="fil1" d="M403.5 82.65c.36-2.7 2.53-3.74 4.55-3.74 2.1 0 4.1 1.02 4.54 3.74h-9.09zm8.82 2.81c-.56 1.68-1.75 2.55-4.38 2.55-2.81 0-4.44-1.87-4.44-4.17h10.66c0-5.01-3.37-6.24-6.22-6.24-4.12 0-6.01 2.78-6.01 5.86 0 2.7 1.48 5.86 6.01 5.86 3.65 0 5.31-1.91 5.95-3.86h-1.57z"/><path id="_22" class="fil1" d="m420.77 87.18-4.33-9.24h-1.7l5.18 11.04h1.7l5.19-11.04h-1.7z"/><path id="_23" class="fil1" d="M429.08 82.65c.36-2.7 2.53-3.74 4.55-3.74 2.1 0 4.1 1.02 4.54 3.74h-9.09zm8.82 2.81c-.56 1.68-1.75 2.55-4.38 2.55-2.81 0-4.44-1.87-4.44-4.17h10.66c0-5.01-3.37-6.24-6.22-6.24-4.12 0-6.01 2.78-6.01 5.86 0 2.7 1.48 5.86 6.01 5.86 3.65 0 5.31-1.91 5.95-3.86h-1.57z"/><path id="_24" class="fil1" d="M441.61 88.98h1.58V73.69h-1.58z"/><path id="_25" class="fil1" d="M446.76 83.46c0-2.66 1.72-4.55 4.69-4.55 2.98 0 4.7 1.89 4.7 4.55s-1.72 4.55-4.7 4.55c-2.97 0-4.69-1.89-4.69-4.55zm-1.58 0c0 3.08 2.02 5.86 6.27 5.86s6.27-2.78 6.27-5.86c0-3.08-2.02-5.86-6.27-5.86s-6.27 2.78-6.27 5.86z"/><path id="_26" class="fil1" d="M459.76 93.28h1.57v-6.51h.04c.73 1.41 2.43 2.55 4.51 2.55 4.12 0 6.01-2.78 6.01-5.86 0-2.7-1.49-5.86-6.01-5.86-3.06 0-4.08 1.61-4.51 2.55h-.04v-2.21h-1.57v15.34zm1.49-9.82c0-2.89 2.01-4.55 4.63-4.55 3.21 0 4.44 2.34 4.44 4.55 0 2.8-1.96 4.55-4.44 4.55-3.21 0-4.63-2.28-4.63-4.55z"/><path id="_27" class="fil1" d="M491.18 88.98h1.57v-7.54c0-2.27-1.44-3.84-4.54-3.84-2.21 0-3.81 1.31-4.34 2.42-.32-1.11-1.46-2.42-3.95-2.42-2.53 0-3.72 1.21-4.38 2.38h-.04v-2.04h-1.57v11.04h1.57v-6.22c0-2.55 1.66-3.85 3.91-3.85 2.15 0 3.15 1.19 3.15 2.59v7.48h1.57v-6.52c0-2.15 1.34-3.55 3.76-3.55 2.27 0 3.29 1.04 3.29 3.06v7.01z"/><path id="_28" class="fil1" d="M496.37 82.65c.36-2.7 2.52-3.74 4.54-3.74 2.11 0 4.1 1.02 4.55 3.74h-9.09zm8.81 2.81c-.55 1.68-1.74 2.55-4.37 2.55-2.81 0-4.44-1.87-4.44-4.17h10.66c0-5.01-3.38-6.24-6.22-6.24-4.13 0-6.02 2.78-6.02 5.86 0 2.7 1.49 5.86 6.02 5.86 3.65 0 5.31-1.91 5.94-3.86h-1.57z"/><path id="_29" class="fil1" d="M518.33 88.98h1.58v-6.84c0-2.63-1.11-4.54-4.79-4.54-2.44 0-4.1 1.33-4.56 2.5h-.05v-2.16h-1.57v11.04h1.57v-5.99c0-2.5 1.41-4.08 4.49-4.08 1.99 0 3.33.77 3.33 2.96v7.11z"/><path id="_30" class="fil1" d="M523.39 77.94h-2.4v1.19h2.4v7.28c0 1.79.53 2.74 2.97 2.74.51 0 1.13-.04 1.73-.12v-1.32c-.3.06-.79.13-1.56.13-1.27 0-1.57-.45-1.57-1.41v-7.3h3.13v-1.19h-3.13v-3.49h-1.57v3.49z"/></g><path d="m78.14 25.39 40.13 69.47C38.91 67.61 0 135.23 0 135.23c81.88-75.1 156.27 0 156.27 0L78.14 0 20.12 100.41s32.13-35.73 81.95-16.84c0 0-17.16-15.96-47.81-15.96l23.88-42.22z" style="fill:#39090e;fill-rule:nonzero"/><path class="fil1" d="m78.14 25.39 40.13 69.47C38.91 67.61 0 135.23 0 135.23c81.88-75.1 156.27 0 156.27 0L78.14 0 20.12 100.41s32.13-35.73 81.95-16.84c0 0-17.16-15.96-47.81-15.96l23.88-42.22z"/><path class="fil3" d="M102.07 83.57s-23.99-23.08-63.44-15.2l-18.51 32.04s38.16-30.52 81.95-16.84z"/><path class="fil3" d="M0 135.23s23.15-40.57 66.82-47.81c43.68-7.25 70.17 14.43 89.45 47.81 0 0-76.1-74.66-156.27 0z"/></g></svg>